G04 DesignSpark PCB Gerber Version 10.0 Build 5299*
G04 #@! TF.Part,Single*
G04 #@! TF.FileFunction,Copper,L2,Bot*
G04 #@! TF.FilePolarity,Positive*
%FSLAX35Y35*%
%MOIN*%
%ADD11C,0.01000*%
%ADD28C,0.03150*%
G04 #@! TA.AperFunction,ComponentPad*
%ADD73C,0.04331*%
%ADD74C,0.05315*%
G04 #@! TA.AperFunction,WasherPad*
%ADD72C,0.06693*%
%ADD29C,0.19685*%
G04 #@! TD.AperFunction*
X0Y0D02*
D02*
D11*
X37214Y119183D02*
X46506D01*
X48907Y121584D01*
Y151506D01*
G75*
G02*
X52844Y155443I3937J0D01*
G01*
X60403D01*
X61545Y156584D01*
X161545Y56584D02*
X119498D01*
G75*
G03*
X111624Y48710I0J-7874D01*
G01*
Y27214D01*
X111230Y26820D01*
X110521D01*
X161545Y176584D02*
X171545D01*
Y76584D02*
X176387D01*
G75*
G02*
X180324Y72647I0J-3937D01*
G01*
Y21506D01*
G75*
G03*
X188198Y13631I7874J0D01*
G01*
X193080D01*
X193513Y13198D01*
X171545Y86584D02*
X180324D01*
G75*
G02*
X184261Y82647I0J-3937D01*
G01*
Y29498D01*
G75*
G03*
X192135Y21624I7874J0D01*
G01*
X192962D01*
X193513Y21072D01*
X171545Y146584D02*
X176387D01*
X178553Y144419D01*
Y141584D01*
X184261Y135876D01*
Y116033D01*
X187175Y113120D01*
X192057D01*
X193513Y111663D01*
X171545Y156584D02*
X179537D01*
X181820Y154301D01*
Y147293D01*
X188277Y140836D01*
Y121624D01*
X190324Y119576D01*
X193474D01*
X193513Y119537D01*
X171545Y176584D02*
X182135D01*
G75*
G02*
X186072Y172647I0J-3937D01*
G01*
Y152490D01*
G75*
G03*
X190009Y148553I3937J0D01*
G01*
X196584D01*
G75*
G02*
X200521Y144616I0J-3937D01*
G01*
Y82017D01*
G75*
G02*
X196584Y78080I-3937J0D01*
G01*
X193631D01*
X193513Y78198D01*
Y13198D02*
Y13946D01*
X204183D01*
G75*
G03*
X212057Y21820I0J7874D01*
G01*
Y32096D01*
G75*
G02*
X216781Y36820I4724J0D01*
G01*
X218120D01*
X218710Y37411D01*
X193513Y21072D02*
X199301D01*
G75*
G03*
X207175Y28946I0J7874D01*
G01*
Y65797D01*
G75*
G02*
X211899Y70521I4724J0D01*
G01*
X218198D01*
X218710Y71033D01*
Y145836D02*
X217017D01*
G75*
G03*
X213080Y141899I0J-3937D01*
G01*
Y108828D01*
G75*
G03*
X217017Y104891I3937J0D01*
G01*
X218317D01*
X218710Y104498D01*
D02*
D28*
X5167Y85639D02*
Y72214D01*
G75*
G03*
X24852Y52529I19685J0D01*
G01*
X36545D01*
X36899Y52175D01*
X37214D01*
X5167Y127057D02*
Y85639D01*
X12017Y127057D02*
X5167D01*
X12017Y160482D02*
X11072D01*
G75*
G03*
X5167Y154576I0J-5906D01*
G01*
Y127057D01*
X37214Y60049D02*
X61545Y56584D01*
X37214Y85639D02*
X5167D01*
X37214Y160482D02*
X41348D01*
G75*
G03*
X47254Y166387I0J5906D01*
G01*
Y180009D01*
G75*
G02*
X53159Y185915I5906J0D01*
G01*
X60876D01*
X61545Y186584D01*
X45994Y28789D02*
X49655D01*
G75*
G02*
X54104Y24340I0J-4449D01*
G01*
Y9734D01*
X56742Y7096D01*
X61033D01*
X61545Y6584D01*
X71545Y186584D02*
X82254D01*
G75*
G02*
X94065Y174773I0J-11811D01*
G01*
Y25482D01*
G75*
G03*
X101939Y17608I7874J0D01*
G01*
X110049D01*
G75*
G03*
X117923Y25482I0J7874D01*
G01*
Y25836D01*
X118395Y26309D01*
Y26820D01*
X161545Y186584D02*
X166545D01*
X171545D01*
Y126584D02*
X176427D01*
X179380Y123631D01*
Y101191D01*
X185836Y94734D01*
X192726D01*
X193513Y93946D01*
X171545Y186584D02*
X193513Y176624D01*
X218710Y169458D01*
Y78907D02*
X226899D01*
X218710Y120246D02*
X226899D01*
X218710Y161584D02*
X220994D01*
G75*
G02*
X226899Y155679I0J-5906D01*
G01*
Y120246D01*
Y78907D02*
Y51112D01*
G75*
G02*
X220994Y45206I-5906J0D01*
G01*
X218789D01*
X218710Y45285D01*
X226899Y120246D02*
Y78907D01*
D02*
D29*
X10443Y11072D03*
Y188238D03*
X226978Y11072D03*
Y188238D03*
D02*
D72*
X25994Y18789D03*
Y28789D03*
X35994Y18789D03*
Y28789D03*
X45994Y18789D03*
Y28789D03*
X61545Y6584D03*
Y16584D03*
Y26584D03*
Y36584D03*
Y46584D03*
Y56584D03*
Y66584D03*
Y76584D03*
Y86584D03*
Y96584D03*
Y106584D03*
Y116584D03*
Y126584D03*
Y136584D03*
Y146584D03*
Y156584D03*
Y166584D03*
Y176584D03*
Y186584D03*
X71545Y6584D03*
Y16584D03*
Y26584D03*
Y36584D03*
Y46584D03*
Y56584D03*
Y66584D03*
Y76584D03*
Y86584D03*
Y96584D03*
Y106584D03*
Y116584D03*
Y126584D03*
Y136584D03*
Y146584D03*
Y156584D03*
Y166584D03*
Y176584D03*
Y186584D03*
X161545Y6584D03*
Y16584D03*
Y26584D03*
Y36584D03*
Y46584D03*
Y56584D03*
Y66584D03*
Y76584D03*
Y86584D03*
Y96584D03*
Y106584D03*
Y116584D03*
Y126584D03*
Y136584D03*
Y146584D03*
Y156584D03*
Y166584D03*
Y176584D03*
Y186584D03*
X171545Y6584D03*
Y16584D03*
Y26584D03*
Y36584D03*
Y46584D03*
Y56584D03*
Y66584D03*
Y76584D03*
Y86584D03*
Y96584D03*
Y106584D03*
Y116584D03*
Y126584D03*
Y136584D03*
Y146584D03*
Y156584D03*
Y166584D03*
Y176584D03*
Y186584D03*
D02*
D73*
X12017Y111309D03*
Y119183D03*
Y127057D03*
Y134931D03*
X193513Y13198D03*
Y21072D03*
Y28946D03*
Y36820D03*
Y111663D03*
Y119537D03*
Y127411D03*
Y135285D03*
Y153002D03*
Y160876D03*
Y168750D03*
Y176624D03*
X218710Y104498D03*
Y112372D03*
Y120246D03*
Y128120D03*
Y145836D03*
Y153710D03*
Y161584D03*
Y169458D03*
D02*
D74*
X12017Y152608D03*
Y160482D03*
Y168356D03*
X37214Y44301D03*
Y52175D03*
Y60049D03*
Y77765D03*
Y85639D03*
Y93513D03*
Y119183D03*
Y127057D03*
Y134931D03*
Y152608D03*
Y160482D03*
Y168356D03*
X110521Y26820D03*
X118395D03*
X126269D03*
X193513Y54576D03*
Y62450D03*
Y70324D03*
Y78198D03*
Y86072D03*
Y93946D03*
X218710Y37411D03*
Y45285D03*
Y53159D03*
Y71033D03*
Y78907D03*
Y86781D03*
X0Y0D02*
M02*
