G04 DesignSpark PCB Gerber Version 10.0 Build 5299*
G04 #@! TF.Part,Single*
G04 #@! TF.FilePolarity,Positive*
%FSLAX35Y35*%
%MOIN*%
G04 #@! TA.AperFunction,ComponentDrill*
%ADD81C,0.02756*%
G04 #@! TA.AperFunction,MechanicalDrill*
%ADD80C,0.03150*%
G04 #@! TA.AperFunction,ComponentDrill*
%ADD82C,0.03543*%
G04 #@! TA.AperFunction,MechanicalDrill*
%ADD79C,0.11811*%
G04 #@! TD.AperFunction*
X0Y0D02*
D02*
D79*
X10443Y11072D03*
Y188238D03*
X226978Y11072D03*
Y188238D03*
D02*
D80*
X25994Y18789D03*
Y28789D03*
X35994Y18789D03*
Y28789D03*
X45994Y18789D03*
Y28789D03*
X61545Y6584D03*
Y16584D03*
Y26584D03*
Y36584D03*
Y46584D03*
Y56584D03*
Y66584D03*
Y76584D03*
Y86584D03*
Y96584D03*
Y106584D03*
Y116584D03*
Y126584D03*
Y136584D03*
Y146584D03*
Y156584D03*
Y166584D03*
Y176584D03*
Y186584D03*
X71545Y6584D03*
Y16584D03*
Y26584D03*
Y36584D03*
Y46584D03*
Y56584D03*
Y66584D03*
Y76584D03*
Y86584D03*
Y96584D03*
Y106584D03*
Y116584D03*
Y126584D03*
Y136584D03*
Y146584D03*
Y156584D03*
Y166584D03*
Y176584D03*
Y186584D03*
X161545Y6584D03*
Y16584D03*
Y26584D03*
Y36584D03*
Y46584D03*
Y56584D03*
Y66584D03*
Y76584D03*
Y86584D03*
Y96584D03*
Y106584D03*
Y116584D03*
Y126584D03*
Y136584D03*
Y146584D03*
Y156584D03*
Y166584D03*
Y176584D03*
Y186584D03*
X171545Y6584D03*
Y16584D03*
Y26584D03*
Y36584D03*
Y46584D03*
Y56584D03*
Y66584D03*
Y76584D03*
Y86584D03*
Y96584D03*
Y106584D03*
Y116584D03*
Y126584D03*
Y136584D03*
Y146584D03*
Y156584D03*
Y166584D03*
Y176584D03*
Y186584D03*
D02*
D81*
X12017Y111309D03*
Y119183D03*
Y127057D03*
Y134931D03*
X193513Y13198D03*
Y21072D03*
Y28946D03*
Y36820D03*
Y111663D03*
Y119537D03*
Y127411D03*
Y135285D03*
Y153002D03*
Y160876D03*
Y168750D03*
Y176624D03*
X218710Y104498D03*
Y112372D03*
Y120246D03*
Y128120D03*
Y145836D03*
Y153710D03*
Y161584D03*
Y169458D03*
D02*
D82*
X12017Y152608D03*
Y160482D03*
Y168356D03*
X37214Y44301D03*
Y52175D03*
Y60049D03*
Y77765D03*
Y85639D03*
Y93513D03*
Y119183D03*
Y127057D03*
Y134931D03*
Y152608D03*
Y160482D03*
Y168356D03*
X110521Y26820D03*
X118395D03*
X126269D03*
X193513Y54576D03*
Y62450D03*
Y70324D03*
Y78198D03*
Y86072D03*
Y93946D03*
X218710Y37411D03*
Y45285D03*
Y53159D03*
Y71033D03*
Y78907D03*
Y86781D03*
X0Y0D02*
M02*
