G05
M48
;#@! TF.GenerationSoftware,DesignSpark,DesignSpark PCB,10.0.5344
;#@! TF.CreationDate,2023-04-18T14:11:16--8:00*
;#@! TF.FileFunction,Plated,1,2,PTH
;FILE_FORMAT=3:5
;TYPE=PLATED
INCH,TZ
FMAT,2
T1C000.02756
T2C000.03150
T3C000.03543
T4C000.11811
%
T001
X0.12017Y1.11309
X0.12017Y1.19183
X0.12017Y1.27057
X0.12017Y1.34931
X1.93513Y0.13198
X1.93513Y0.21072
X1.93513Y0.28946
X1.93513Y0.36820
X1.93513Y1.11663
X1.93513Y1.19537
X1.93513Y1.27411
X1.93513Y1.35285
X1.93513Y1.53002
X1.93513Y1.60876
X1.93513Y1.68750
X1.93513Y1.76624
X2.18710Y1.04498
X2.18710Y1.12372
X2.18710Y1.20246
X2.18710Y1.28120
X2.18710Y1.45836
X2.18710Y1.53710
X2.18710Y1.61584
X2.18710Y1.69458
T002
X0.25994Y0.18789
X0.25994Y0.28789
X0.35994Y0.18789
X0.35994Y0.28789
X0.45994Y0.18789
X0.45994Y0.28789
X0.61545Y0.06584
X0.61545Y0.16584
X0.61545Y0.26584
X0.61545Y0.36584
X0.61545Y0.46584
X0.61545Y0.56584
X0.61545Y0.66584
X0.61545Y0.76584
X0.61545Y0.86584
X0.61545Y0.96584
X0.61545Y1.06584
X0.61545Y1.16584
X0.61545Y1.26584
X0.61545Y1.36584
X0.61545Y1.46584
X0.61545Y1.56584
X0.61545Y1.66584
X0.61545Y1.76584
X0.61545Y1.86584
X0.71545Y0.06584
X0.71545Y0.16584
X0.71545Y0.26584
X0.71545Y0.36584
X0.71545Y0.46584
X0.71545Y0.56584
X0.71545Y0.66584
X0.71545Y0.76584
X0.71545Y0.86584
X0.71545Y0.96584
X0.71545Y1.06584
X0.71545Y1.16584
X0.71545Y1.26584
X0.71545Y1.36584
X0.71545Y1.46584
X0.71545Y1.56584
X0.71545Y1.66584
X0.71545Y1.76584
X0.71545Y1.86584
X1.61545Y0.06584
X1.61545Y0.16584
X1.61545Y0.26584
X1.61545Y0.36584
X1.61545Y0.46584
X1.61545Y0.56584
X1.61545Y0.66584
X1.61545Y0.76584
X1.61545Y0.86584
X1.61545Y0.96584
X1.61545Y1.06584
X1.61545Y1.16584
X1.61545Y1.26584
X1.61545Y1.36584
X1.61545Y1.46584
X1.61545Y1.56584
X1.61545Y1.66584
X1.61545Y1.76584
X1.61545Y1.86584
X1.71545Y0.06584
X1.71545Y0.16584
X1.71545Y0.26584
X1.71545Y0.36584
X1.71545Y0.46584
X1.71545Y0.56584
X1.71545Y0.66584
X1.71545Y0.76584
X1.71545Y0.86584
X1.71545Y0.96584
X1.71545Y1.06584
X1.71545Y1.16584
X1.71545Y1.26584
X1.71545Y1.36584
X1.71545Y1.46584
X1.71545Y1.56584
X1.71545Y1.66584
X1.71545Y1.76584
X1.71545Y1.86584
T003
X0.12017Y1.52608
X0.12017Y1.60482
X0.12017Y1.68356
X0.37214Y0.44301
X0.37214Y0.52175
X0.37214Y0.60049
X0.37214Y0.77765
X0.37214Y0.85639
X0.37214Y0.93513
X0.37214Y1.19183
X0.37214Y1.27057
X0.37214Y1.34931
X0.37214Y1.52608
X0.37214Y1.60482
X0.37214Y1.68356
X1.10521Y0.26820
X1.18395Y0.26820
X1.26269Y0.26820
X1.93513Y0.54576
X1.93513Y0.62450
X1.93513Y0.70324
X1.93513Y0.78198
X1.93513Y0.86072
X1.93513Y0.93946
X2.18710Y0.37411
X2.18710Y0.45285
X2.18710Y0.53159
X2.18710Y0.71033
X2.18710Y0.78907
X2.18710Y0.86781
T004
X0.10443Y0.11072
X0.10443Y1.88238
X2.26978Y0.11072
X2.26978Y1.88238
M30
