G04 DesignSpark PCB Gerber Version 10.0 Build 5299*
G04 #@! TF.Part,Single*
G04 #@! TF.FileFunction,Copper,L1,Top*
G04 #@! TF.FilePolarity,Positive*
%FSLAX35Y35*%
%MOIN*%
%ADD11C,0.01000*%
%ADD28C,0.03150*%
G04 #@! TA.AperFunction,ComponentPad*
%ADD73C,0.04331*%
%ADD74C,0.05315*%
G04 #@! TA.AperFunction,WasherPad*
%ADD72C,0.06693*%
%ADD29C,0.19685*%
G04 #@! TD.AperFunction*
X0Y0D02*
D02*
D11*
X12017Y152608D02*
Y151427D01*
G75*
G03*
X15954Y147490I3937J0D01*
G01*
X46387D01*
G75*
G03*
X50324Y151427I0J3937D01*
G01*
Y158317D01*
G75*
G02*
X58198Y166191I7874J0D01*
G01*
X61151D01*
X61545Y166584D01*
X37214Y44301D02*
X37254Y44340D01*
X39891D01*
G75*
G03*
X45797Y50246I0J5906D01*
G01*
Y62450D01*
G75*
G02*
X49734Y66387I3937J0D01*
G01*
X51466D01*
G75*
G03*
X55403Y70324I0J3937D01*
G01*
Y112647D01*
G75*
G02*
X59340Y116584I3937J0D01*
G01*
X61545D01*
X37214Y152608D02*
X40915D01*
G75*
G03*
X44852Y156545I0J3937D01*
G01*
Y168120D01*
G75*
G02*
X52726Y175994I7874J0D01*
G01*
X60954D01*
X61545Y176584D01*
Y16584D02*
X71545D01*
X61545Y26584D02*
X71545D01*
X61545Y36584D02*
X71545D01*
X61545Y46584D02*
X71545D01*
X61545Y66584D02*
X71545D01*
X61545Y76584D02*
X71545D01*
X61545Y86584D02*
X71545D01*
X61545Y96584D02*
X71545D01*
X61545Y106584D02*
X71545D01*
X61545Y126584D02*
X55600D01*
G75*
G03*
X51663Y122647I0J-3937D01*
G01*
Y82293D01*
G75*
G02*
X47726Y78356I-3937J0D01*
G01*
X37805D01*
X37214Y77765D01*
X61545Y126584D02*
X71545D01*
X61545Y136584D02*
X71545D01*
X61545D02*
X60561Y135600D01*
X53513D01*
G75*
G03*
X47608Y129694I0J-5906D01*
G01*
Y112569D01*
G75*
G02*
X43671Y108631I-3937J0D01*
G01*
X21545D01*
X12017Y111309D01*
X61545Y146584D02*
X66545D01*
X71545D01*
X61545D02*
X51427Y143946D01*
G75*
G03*
X43553Y136072I0J-7874D01*
G01*
Y117687D01*
G75*
G02*
X39616Y113750I-3937J0D01*
G01*
X25639D01*
X12017Y119183D01*
X61545Y156584D02*
X71545D01*
X61545Y166584D02*
X71545D01*
X61545Y176584D02*
X71545D01*
Y116584D02*
X61545D01*
X161545Y16584D02*
X171545D01*
X161545Y36584D02*
X171545D01*
X161545Y56584D02*
X171545D01*
X161545Y76584D02*
X171545D01*
X161545Y96584D02*
X171545D01*
X161545Y116584D02*
X171545D01*
X161545Y136584D02*
X171545D01*
X161545Y146584D02*
X171545D01*
X161545Y156584D02*
X171545D01*
X161545Y166584D02*
X166545D01*
X171545D01*
Y6584D02*
X161545D01*
X171545Y26584D02*
X161545D01*
X171545Y46584D02*
X161545D01*
X171545Y66584D02*
X161545D01*
X171545Y86584D02*
X161545D01*
X171545Y96584D02*
X174380D01*
G75*
G02*
X178317Y92647I0J-3937D01*
G01*
Y59655D01*
G75*
G03*
X182254Y55718I3937J0D01*
G01*
X192372D01*
X193513Y54576D01*
X171545Y106584D02*
X177569D01*
G75*
G02*
X181506Y102647I0J-3937D01*
G01*
Y67057D01*
G75*
G03*
X185443Y63120I3937J0D01*
G01*
X192017D01*
X192687Y62450D01*
X193513D01*
X171545Y106584D02*
X161545D01*
X171545Y116584D02*
X180482D01*
G75*
G02*
X184419Y112647I0J-3937D01*
G01*
Y74380D01*
G75*
G03*
X188356Y70443I3937J0D01*
G01*
X193395D01*
X193513Y70324D01*
X171545Y136584D02*
X193513Y153002D01*
X171545Y166584D02*
X193513Y160876D01*
Y153002D02*
X218710Y145836D01*
X193513Y160876D02*
X218710Y153710D01*
X220009D01*
G75*
G02*
X223946Y149773I0J-3937D01*
G01*
Y116702D01*
G75*
G02*
X220009Y112765I-3937J0D01*
G01*
X219104D01*
X218710Y112372D01*
D02*
D28*
X4537Y134931D02*
Y93513D01*
X12017Y127057D02*
X37214D01*
X12017Y134931D02*
X4537D01*
X12017Y160482D02*
X37214D01*
X12017Y168356D02*
X10443D01*
G75*
G03*
X4537Y162450I0J-5906D01*
G01*
Y134931D01*
X25994Y18789D02*
X35994D01*
X45994D01*
X35994Y28789D02*
X25994D01*
X37214Y60049D02*
X24222D01*
G75*
G02*
X4537Y79734I0J19685D01*
G01*
Y93513D01*
X37214D02*
X4537D01*
X37214Y134931D02*
X12017D01*
X37214Y168356D02*
X12017D01*
X45994Y28789D02*
X35994D01*
X61545Y6584D02*
X71545D01*
X61545Y56584D02*
X59458D01*
G75*
G03*
X53553Y50679I0J-5906D01*
G01*
Y23553D01*
G75*
G02*
X48986Y18986I-4567J0D01*
G01*
X46191D01*
X45994Y18789D01*
X61545Y186584D02*
X71545D01*
Y56584D02*
X119616D01*
X125954Y50246D01*
Y27135D01*
X126269Y26820D01*
X71545Y56584D02*
X66545D01*
X61545D01*
X71545Y186584D02*
Y188631D01*
G75*
G02*
X77450Y194537I5906J0D01*
G01*
X179891D01*
G75*
G02*
X185797Y188631I0J-5906D01*
G01*
Y172923D01*
G75*
G03*
X189734Y168986I3937J0D01*
G01*
X193277D01*
X193513Y168750D01*
X161545Y126584D02*
X166545D01*
X171545D01*
X193513Y135285D01*
Y28946D02*
X218710Y45285D01*
X193513Y36820D02*
X218710Y53159D01*
X193513Y86072D02*
X218710Y78907D01*
X193513Y93946D02*
X218710Y86781D01*
X193513Y127411D02*
X218710Y120246D01*
X193513Y135285D02*
X218710Y128120D01*
X193513Y168750D02*
X218710Y161584D01*
Y169458D02*
X224734D01*
G75*
G02*
X230639Y163553I0J-5906D01*
G01*
Y86820D01*
Y59734D01*
G75*
G02*
X224734Y53828I-5906J0D01*
G01*
X219734D01*
X219065Y53159D01*
X218710D01*
X230639Y86820D02*
Y86781D01*
X218710D01*
D02*
D29*
X10443Y11072D03*
Y188238D03*
X226978Y11072D03*
Y188238D03*
D02*
D72*
X25994Y18789D03*
Y28789D03*
X35994Y18789D03*
Y28789D03*
X45994Y18789D03*
Y28789D03*
X61545Y6584D03*
Y16584D03*
Y26584D03*
Y36584D03*
Y46584D03*
Y56584D03*
Y66584D03*
Y76584D03*
Y86584D03*
Y96584D03*
Y106584D03*
Y116584D03*
Y126584D03*
Y136584D03*
Y146584D03*
Y156584D03*
Y166584D03*
Y176584D03*
Y186584D03*
X71545Y6584D03*
Y16584D03*
Y26584D03*
Y36584D03*
Y46584D03*
Y56584D03*
Y66584D03*
Y76584D03*
Y86584D03*
Y96584D03*
Y106584D03*
Y116584D03*
Y126584D03*
Y136584D03*
Y146584D03*
Y156584D03*
Y166584D03*
Y176584D03*
Y186584D03*
X161545Y6584D03*
Y16584D03*
Y26584D03*
Y36584D03*
Y46584D03*
Y56584D03*
Y66584D03*
Y76584D03*
Y86584D03*
Y96584D03*
Y106584D03*
Y116584D03*
Y126584D03*
Y136584D03*
Y146584D03*
Y156584D03*
Y166584D03*
Y176584D03*
Y186584D03*
X171545Y6584D03*
Y16584D03*
Y26584D03*
Y36584D03*
Y46584D03*
Y56584D03*
Y66584D03*
Y76584D03*
Y86584D03*
Y96584D03*
Y106584D03*
Y116584D03*
Y126584D03*
Y136584D03*
Y146584D03*
Y156584D03*
Y166584D03*
Y176584D03*
Y186584D03*
D02*
D73*
X12017Y111309D03*
Y119183D03*
Y127057D03*
Y134931D03*
X193513Y13198D03*
Y21072D03*
Y28946D03*
Y36820D03*
Y111663D03*
Y119537D03*
Y127411D03*
Y135285D03*
Y153002D03*
Y160876D03*
Y168750D03*
Y176624D03*
X218710Y104498D03*
Y112372D03*
Y120246D03*
Y128120D03*
Y145836D03*
Y153710D03*
Y161584D03*
Y169458D03*
D02*
D74*
X12017Y152608D03*
Y160482D03*
Y168356D03*
X37214Y44301D03*
Y52175D03*
Y60049D03*
Y77765D03*
Y85639D03*
Y93513D03*
Y119183D03*
Y127057D03*
Y134931D03*
Y152608D03*
Y160482D03*
Y168356D03*
X110521Y26820D03*
X118395D03*
X126269D03*
X193513Y54576D03*
Y62450D03*
Y70324D03*
Y78198D03*
Y86072D03*
Y93946D03*
X218710Y37411D03*
Y45285D03*
Y53159D03*
Y71033D03*
Y78907D03*
Y86781D03*
X0Y0D02*
M02*
